<?xml version="1.0"?>
<svg width="151" height="151" xmlns="http://www.w3.org/2000/svg" xmlns:svg="http://www.w3.org/2000/svg" data-name="图层 1">
 <defs>
  <style>.cls-1{fill:#25d8c5;}.cls-2{fill:#ffd966;}</style>
 </defs>
 <g class="layer">
  <title>Layer 1</title>
  <rect class="cls-1" height="151.35" id="svg_1" rx="20.08" width="151.35" x="0" y="0"/>
  <path class="cls-2" d="m134.81,109.38c-3.12,2.32 -5.75,4.65 -8.72,6.42c-14.11,8.4 -29,9.56 -44.21,3.65a47.62,47.62 0 0 1 -17,-11.65c-9.17,-9.53 -15.7,-20.92 -22.46,-32.14a8.68,8.68 0 0 1 -0.5,-1.38c0.9,-0.05 1.61,-0.12 2.32,-0.12c5,0 10.07,0.2 15.09,-0.09a28.53,28.53 0 0 0 8.68,-1.8c4.9,-1.91 7.36,-6.55 7.16,-12.36c-0.19,-5.24 -3,-9.36 -7.87,-11a26.39,26.39 0 0 0 -7.54,-1.47c-6.87,-0.2 -13.74,-0.07 -20.61,-0.06a12,12 0 0 0 -1.39,0.17l0,71l-21.23,0l0,-90.13c0.87,0 1.66,-0.12 2.46,-0.12c13.95,0 27.89,-0.05 41.84,0c7.19,0 14.18,1.08 20.53,4.44c4.92,-3.42 11.09,-4.58 17.9,-4.56l0,0c12.74,0.15 29.65,6.25 35.42,14.46a22.46,22.46 0 0 0 -2.83,2c-3.06,2.93 -6.05,5.92 -9,9c-1,1 -1.64,1.24 -2.88,0.23a28.42,28.42 0 0 0 -17.24,-6.47a3.12,3.12 0 0 1 -0.93,-0.22a58.58,58.58 0 0 0 -7.13,0a34.39,34.39 0 0 1 2.13,12.49c0,11.12 -4.08,20.1 -13.66,26.17c-2,1.3 -4.27,2.3 -6.58,3.52a27.26,27.26 0 0 0 14.39,12.48c10.51,3.94 20.29,2.42 29.16,-4.53a1.57,1.57 0 0 1 2.44,0.07c3.91,3.88 7.86,7.71 12.26,12z" fill="#ffaaaa" id="svg_2"/>
 </g>
</svg>